<svg xmlns="http://www.w3.org/2000/svg" xmlns:xlink="http://www.w3.org/1999/xlink" width="100" height="100" x="0" y="0" style="enable-background:new 0 0 100 100" fill="#000" version="1.1" viewBox="0 0 100 100" xml:space="preserve"><style type="text/css">.st0{fill:none}</style><g><rect width="62" height="6" x="9" y="73" class="st0"/><rect width="62" height="6" x="19" y="47" class="st0"/><rect width="62" height="6" x="29" y="21" class="st0"/><path d="M73,69H7c-1.1,0-2,0.9-2,2v10c0,1.1,0.9,2,2,2h66c1.1,0,2-0.9,2-2V71C75,69.9,74.1,69,73,69z M71,79H9v-6h62V79z"/><path d="M83,43H17c-1.1,0-2,0.9-2,2v10c0,1.1,0.9,2,2,2h66c1.1,0,2-0.9,2-2V45C85,43.9,84.1,43,83,43z M81,53H19v-6h62V53z"/><path d="M93,17H27c-1.1,0-2,0.9-2,2v10c0,1.1,0.9,2,2,2h66c1.1,0,2-0.9,2-2V19C95,17.9,94.1,17,93,17z M91,27H29v-6h62V27z"/></g></svg>