<svg xmlns="http://www.w3.org/2000/svg" xmlns:xlink="http://www.w3.org/1999/xlink" width="100" height="100" x="0" y="0" fill="#000" version="1.1" viewBox="0 0 100 100" xml:space="preserve" style="enable-background:new 0 0 100 100"><style type="text/css"/><g><g><path d="M41.8,30.2l13.4,13.4l6.4,6.4l-6.4,6.4L41.8,69.8l-5.7-5.7l8.4-8.4l1.7-1.7h-2.4H6v-8h37.9h2.4l-1.7-1.7l-8.4-8.4 L41.8,30.2 M41.8,28.8l-7.1,7.1l9.1,9.1H5v10h38.9l-9.1,9.1l7.1,7.1l14.1-14.1L63,50l-7.1-7.1L41.8,28.8L41.8,28.8z"/></g><g><path d="M94,6v88h-8V6H94 M95,5H85v90h10V5L95,5z"/></g></g></svg>