<svg xmlns="http://www.w3.org/2000/svg" xmlns:svg="http://www.w3.org/2000/svg" width="100" height="100" x="0" y="0" fill="#000" version="1.1" viewBox="0 0 100 100"><g><path fill="#000" fill-opacity="1" stroke-width="0" d="m 9.77424,1012.682 10e-6,-19.75988 -10e-6,-0.7401 0.84649,0 19.65352,0 0,20.49998 z" transform="translate(0,-952.36218)"/><path fill="#000" fill-opacity="1" stroke-width="0" d="m 39.77424,1012.682 1e-5,-19.75988 -1e-5,-0.7401 0.8465,0 19.65351,0 0,20.49998 z" transform="translate(0,-952.36218)"/><path fill="#000" fill-opacity="1" stroke-width="0" d="m 9.77424,1040.682 10e-6,-19.76 -10e-6,-0.74 0.84649,0 19.65352,0 0,20.5 z" transform="translate(0,-952.36218)"/><path fill="#000" fill-opacity="1" stroke-width="0" d="m 39.77424,1040.682 1e-5,-19.76 -1e-5,-0.74 0.8465,0 19.65351,0 0,20.5 z" transform="translate(0,-952.36218)"/><path fill="#000" fill-opacity="1" stroke-width="0" d="m 39.72575,984.54234 1e-5,-19.75995 -1e-5,-0.74005 0.84649,0 19.65352,0 0,20.5 z" transform="translate(0,-952.36218)"/><path fill="#000" fill-opacity="1" stroke-width="0" d="m 69.72575,984.54234 10e-6,-19.75995 -10e-6,-0.74005 0.8465,0 19.65351,0 0,20.5 z" transform="translate(0,-952.36218)"/><path fill="#000" fill-opacity="1" stroke-width="0" d="m 39.72575,1012.5423 1e-5,-19.75988 -1e-5,-0.7401 0.84649,0 19.65352,0 0,20.49998 z" transform="translate(0,-952.36218)"/><path fill="#000" fill-opacity="1" stroke-width="0" d="m 69.72575,1012.5423 10e-6,-19.75988 -10e-6,-0.7401 0.8465,0 19.65351,0 0,20.49998 z" transform="translate(0,-952.36218)"/><path fill="#000" fill-opacity="1" stroke-width="0" d="m 69.72575,1040.682 10e-6,-19.76 -10e-6,-0.74 0.8465,0 19.65351,0 0,20.5 z" transform="translate(0,-952.36218)"/><path fill="#000" fill-opacity="1" stroke-width="0" d="m 9.77424,984.54234 10e-6,-19.75995 -10e-6,-0.74005 0.84649,0 19.65352,0 0,20.5 z" transform="translate(0,-952.36218)"/></g></svg>